<svg width="15" height="12" viewBox="0 0 15 12" fill="none" xmlns="http://www.w3.org/2000/svg">
<path d="M2.29688 8.06C1.76563 7.37 1.5 7.02438 1.5 6C1.5 4.975 1.76563 4.63063 2.29688 3.94C3.3575 2.5625 5.13625 1 7.75 1C10.3638 1 12.1425 2.5625 13.2031 3.94C13.7344 4.63125 14 4.97562 14 6C14 7.025 13.7344 7.36937 13.2031 8.06C12.1425 9.4375 10.3638 11 7.75 11C5.13625 11 3.3575 9.4375 2.29688 8.06Z" stroke="#54575D" stroke-width="1.5"/>
<path d="M9.625 6C9.625 6.49728 9.42746 6.97419 9.07583 7.32583C8.72419 7.67746 8.24728 7.875 7.75 7.875C7.25272 7.875 6.77581 7.67746 6.42417 7.32583C6.07254 6.97419 5.875 6.49728 5.875 6C5.875 5.50272 6.07254 5.02581 6.42417 4.67417C6.77581 4.32254 7.25272 4.125 7.75 4.125C8.24728 4.125 8.72419 4.32254 9.07583 4.67417C9.42746 5.02581 9.625 5.50272 9.625 6Z" stroke="#54575D" stroke-width="1.5"/>
</svg>
