<svg width="36" height="36" viewBox="0 0 36 36" fill="none" xmlns="http://www.w3.org/2000/svg">
<path d="M23.1709 0.987305C25.3972 0.655719 27.6301 0.71888 29.4287 0.890625L29.4277 0.891602C30.8897 1.0239 32.259 1.66397 33.2969 2.70215L33.4873 2.90039C34.4132 3.91151 34.9837 5.20084 35.1074 6.57129L35.1699 7.31348C35.2895 8.96555 35.2993 10.8998 35.0107 12.832L34.9385 13.2783C34.5532 15.4971 33.7356 17.7764 32.124 19.5635L31.791 19.9141C28.9053 22.8034 24.4585 23.4443 20.9395 23.4404L20.248 23.4316C20.1067 23.4277 19.9692 23.4785 19.8643 23.5732C19.7593 23.668 19.6941 23.7994 19.6836 23.9404C19.4895 26.8141 18.9345 30.3055 17.498 33.2959L17.1992 33.8867C16.6329 34.9531 15.575 35.3935 14.5693 35.2148L14.3691 35.1709C13.4284 34.9257 12.6578 34.1606 12.3896 33.1289L12.3428 32.9199C12.1141 31.7103 11.8222 30.3476 11.4766 29.1123L11.3252 28.5918C11.1169 27.9075 10.9011 27.303 10.6777 26.8174H10.6768C10.4451 26.3108 10.2487 26.0202 10.1162 25.8877C9.98336 25.7549 9.69219 25.5565 9.18457 25.3252L9.18359 25.3242C8.69833 25.101 8.09514 24.8834 7.41504 24.6777L6.3418 24.3799C5.26547 24.0963 4.17809 23.8541 3.08301 23.6533H3.08203C1.94425 23.44 1.09642 22.629 0.831055 21.625L0.830078 21.624C0.55617 20.564 0.981576 19.4011 2.11426 18.7949H2.11523L2.70703 18.4951C5.5018 17.1544 8.73058 16.5838 11.4854 16.3574L12.0674 16.3135C12.2078 16.3026 12.3392 16.2384 12.4336 16.1338C12.5281 16.0289 12.5781 15.8912 12.5742 15.75V15.749C12.486 12.1389 13.0141 7.28695 16.0918 4.20703L16.4424 3.87402C18.2276 2.26248 20.505 1.4439 22.7256 1.05859L23.1709 0.987305ZM29.1885 3.37988C27.5092 3.21791 25.4975 3.16692 23.5439 3.45996L23.1533 3.52344C21.204 3.86189 19.4314 4.54523 18.1162 5.73047L17.8594 5.97461C15.5597 8.27451 14.9885 12.1797 15.0742 15.6875L15.0674 15.9883C14.9606 17.4267 13.845 18.626 12.3857 18.7969L12.2334 18.8105C9.48637 18.9916 6.36549 19.5149 3.7959 20.7461L3.29004 21.002C3.27824 21.0083 3.2695 21.0154 3.26172 21.0205C3.28799 21.0709 3.36284 21.1621 3.54297 21.1973H3.54395C5.09159 21.4809 6.62406 21.8434 8.13477 22.2832H8.13379C8.66885 22.4386 9.19585 22.6217 9.71191 22.8311L10.2246 23.0488L10.2266 23.0498L10.6777 23.2715C11.1242 23.5066 11.55 23.7844 11.8838 24.1182C12.2177 24.4521 12.4954 24.8792 12.7305 25.3262L12.9521 25.7773L12.9531 25.7793L13.1709 26.292C13.3797 26.8074 13.5619 27.3338 13.7168 27.8682L13.877 28.4355C14.2434 29.7613 14.5509 31.1027 14.7979 32.4561L14.8174 32.5322C14.8593 32.6593 14.9315 32.7165 14.9746 32.7393C14.9799 32.7312 14.9885 32.7222 14.9951 32.71C16.4099 30.0541 16.9944 26.6979 17.1895 23.7705L17.2236 23.4785C17.3359 22.8057 17.6708 22.1864 18.1797 21.7236C18.7612 21.1948 19.5248 20.9114 20.3105 20.9316L20.9727 20.9395C24.3004 20.939 27.8674 20.3024 30.0254 18.1445L30.2695 17.8877C31.4547 16.5726 32.1381 14.7998 32.4766 12.8486L32.5391 12.459C32.8292 10.5049 32.7801 8.4927 32.6182 6.81152L32.6172 6.80859C32.5402 5.92559 32.1549 5.09763 31.5283 4.4707C30.9016 3.84371 30.0735 3.45823 29.1904 3.38086L29.1885 3.37988ZM25.5029 5.74707C25.9669 5.74717 26.4121 5.93167 26.7402 6.25977C27.0683 6.58787 27.2528 7.03307 27.2529 7.49707C27.2529 7.96103 27.0682 8.40622 26.7402 8.73438C26.4121 9.06247 25.9669 9.24697 25.5029 9.24707C25.0388 9.24707 24.5928 9.06256 24.2646 8.73438C23.9367 8.40623 23.7529 7.96098 23.7529 7.49707C23.753 7.03312 23.9366 6.58787 24.2646 6.25977C24.5928 5.93158 25.0388 5.74707 25.5029 5.74707Z" fill="black" stroke="black" stroke-width="0.5"/>
</svg>
