<svg width="34" height="34" viewBox="0 0 34 34" fill="none" xmlns="http://www.w3.org/2000/svg">
<path d="M23.1834 3.66732C24.5667 3.66732 25.8834 4.03398 27.0001 4.76732C28.9001 6.00065 30.0667 7.88398 30.3334 10.0673C30.4287 11.1249 30.2916 12.1905 29.9318 13.1895C29.5719 14.1886 28.9979 15.0968 28.2501 15.8507C27.0834 17.0007 25.6001 17.734 23.9667 17.9007C20.7834 18.234 17.9834 19.5007 15.9001 21.6173C15.648 21.8627 15.3101 22 14.9584 22C14.6066 22 14.2688 21.8627 14.0167 21.6173L12.3667 19.9673C12.2499 19.8519 12.1572 19.7143 12.0943 19.5626C12.0313 19.411 11.9993 19.2482 12.0001 19.084C12.0001 18.6673 12.1834 18.3006 12.5334 17.9506C14.5501 15.9173 15.7834 13.2173 16.0834 10.1173C16.3001 7.90065 17.4834 6.00065 19.4167 4.75065C20.5167 4.03398 21.8167 3.66732 23.1834 3.66732ZM23.1834 0.333984C21.2334 0.333984 19.2834 0.867318 17.6001 1.95065C14.6667 3.83398 13.0501 6.76732 12.7667 9.80065C12.5501 12.0007 11.7167 14.0506 10.1834 15.584L10.1334 15.634C8.20005 17.5673 8.20005 20.5173 10.0167 22.3173L11.6667 23.9673C12.5834 24.884 13.7667 25.334 14.9501 25.334C16.1334 25.334 17.3334 24.884 18.2501 23.9673C19.8667 22.3507 22.0001 21.4673 24.3167 21.2173C26.6001 20.9673 28.8334 19.9673 30.6001 18.2173C31.7084 17.1105 32.5538 15.7686 33.0737 14.2909C33.5935 12.8133 33.7745 11.2377 33.6033 9.68067C33.432 8.12364 32.913 6.62502 32.0844 5.29566C31.2559 3.96629 30.1392 2.84019 28.8167 2.00065C27.1334 0.883984 25.1667 0.333984 23.1834 0.333984ZM7.43339 30.1007C7.88339 31.034 7.73339 32.1673 6.95005 32.934C6.61079 33.2784 6.1784 33.5162 5.7059 33.6184C5.23341 33.7206 4.74136 33.6827 4.29012 33.5092C3.83888 33.3358 3.44806 33.0345 3.16561 32.6421C2.88316 32.2498 2.72136 31.7836 2.70005 31.3006C2.21711 31.2793 1.75088 31.1175 1.35855 30.8351C0.966234 30.5526 0.664882 30.1618 0.491463 29.7106C0.318045 29.2593 0.280101 28.7673 0.382286 28.2948C0.484472 27.8223 0.722342 27.3899 1.06672 27.0507C1.83339 26.284 2.98339 26.1173 3.90005 26.5673L8.03339 22.5173C8.26672 22.834 8.53339 23.2006 8.83339 23.5007L10.4834 25.1507C10.8334 25.484 11.1667 25.7673 11.6001 26.0173L7.43339 30.1007Z" fill="black"/>
</svg>
