<svg width="38" height="38" viewBox="0 0 38 38" fill="none" xmlns="http://www.w3.org/2000/svg">
<path d="M25.0817 1.52246C25.3424 1.33451 25.6781 1.28409 25.983 1.38574L33.2828 3.81836L33.4645 3.88379C34.366 4.22944 35.1284 4.86752 35.6276 5.69824L35.7233 5.86621C36.183 6.71496 36.3473 7.69495 36.1862 8.65039L35.2194 14.4268L35.2203 14.4277C35.1314 14.9758 34.8741 15.4805 34.4869 15.873L34.3131 16.0342C33.8301 16.4439 33.217 16.6671 32.5836 16.666V16.667H29.9996V32.334C29.9996 33.4115 29.5983 34.4473 28.8785 35.2422L28.7311 35.3984C27.9184 36.2111 26.8159 36.667 25.6666 36.667H12.3336C9.948 36.667 7.99963 34.7196 7.99963 32.334V16.667H5.41663V16.666C4.86219 16.667 4.32342 16.4963 3.87366 16.1787L3.68616 16.0342C3.20344 15.6245 2.8822 15.0563 2.77991 14.4316V14.4326L1.81409 8.65039L1.78577 8.45898C1.66786 7.5009 1.87365 6.52885 2.37268 5.69824L2.4762 5.53418C3.00983 4.72983 3.79812 4.12463 4.71741 3.81836L12.0172 1.38574L12.1324 1.35449C12.4044 1.29871 12.6894 1.35817 12.9176 1.52246C13.1784 1.71041 13.3336 2.01254 13.3336 2.33398C13.3336 3.8368 13.9302 5.27813 14.9928 6.34082L15.1969 6.53516C16.2363 7.4761 17.591 8.0009 18.9996 8.00098C20.5025 8.00098 21.9438 7.40343 23.0065 6.34082L23.2008 6.1377C24.1421 5.09818 24.6666 3.74301 24.6666 2.33398C24.6666 2.01255 24.8209 1.71041 25.0817 1.52246Z" stroke="black" stroke-width="2" stroke-linecap="round" stroke-linejoin="round"/>
</svg>
