<svg width="35" height="36" viewBox="0 0 35 36" fill="none" xmlns="http://www.w3.org/2000/svg">
<path d="M1.345 2.9025C1.7375 1.405 3.1025 0.5 4.5375 0.5C5.4225 0.5 6.2275 0.8325 6.84 1.375C7.51531 0.808533 8.36857 0.498047 9.25 0.498047C10.1314 0.498047 10.9847 0.808533 11.66 1.375C12.2937 0.809954 13.1135 0.498416 13.9625 0.5C15.3975 0.5 16.7625 1.405 17.155 2.9025C17.53 4.3325 18 6.6375 18 9.25C17.9999 10.7089 17.6351 12.1446 16.9387 13.4265C16.2423 14.7085 15.2364 15.7959 14.0125 16.59C13.335 17.0325 13 17.6025 13 18.09V19.08C13 19.1367 13.0033 19.1917 13.01 19.245C13.095 19.865 13.4025 22.1675 13.69 24.555C13.9725 26.8975 14.25 29.4525 14.25 30.5C14.25 31.8261 13.7232 33.0979 12.7855 34.0355C11.8479 34.9732 10.5761 35.5 9.25 35.5C7.92392 35.5 6.65215 34.9732 5.71447 34.0355C4.77678 33.0979 4.25 31.8261 4.25 30.5C4.25 29.45 4.5275 26.9 4.81 24.555C5.0975 22.1675 5.405 19.865 5.49 19.245L5.5 19.08V18.09C5.5 17.6025 5.165 17.0325 4.4875 16.59C3.26364 15.7959 2.25774 14.7085 1.56132 13.4265C0.864899 12.1446 0.500062 10.7089 0.5 9.25C0.5 6.6375 0.97 4.3325 1.345 2.9025ZM13 10.5C13 10.8315 12.8683 11.1495 12.6339 11.3839C12.3995 11.6183 12.0815 11.75 11.75 11.75C11.4185 11.75 11.1005 11.6183 10.8661 11.3839C10.6317 11.1495 10.5 10.8315 10.5 10.5V4.25C10.5 3.91848 10.3683 3.60054 10.1339 3.36612C9.89946 3.1317 9.58152 3 9.25 3C8.91848 3 8.60054 3.1317 8.36612 3.36612C8.1317 3.60054 8 3.91848 8 4.25V10.5C8 10.8315 7.8683 11.1495 7.63388 11.3839C7.39946 11.6183 7.08152 11.75 6.75 11.75C6.41848 11.75 6.10054 11.6183 5.86612 11.3839C5.6317 11.1495 5.5 10.8315 5.5 10.5V3.9625C5.5 3.70723 5.39859 3.46241 5.21809 3.28191C5.03759 3.10141 4.79277 3 4.5375 3C4.1225 3 3.8375 3.2475 3.7625 3.5375C3.26983 5.40216 3.01365 7.32139 3 9.25C2.99988 10.2926 3.26058 11.3186 3.75836 12.2347C4.25614 13.1508 4.97518 13.9278 5.85 14.495C6.9475 15.2075 8 16.46 8 18.09V19.08C8 19.2467 7.98917 19.4133 7.9675 19.58C7.8825 20.195 7.5775 22.4825 7.2925 24.855C7.0025 27.2675 6.75 29.64 6.75 30.5C6.75 31.163 7.01339 31.7989 7.48223 32.2678C7.95107 32.7366 8.58696 33 9.25 33C9.91304 33 10.5489 32.7366 11.0178 32.2678C11.4866 31.7989 11.75 31.163 11.75 30.5C11.75 29.64 11.5 27.2675 11.2075 24.8525C10.9225 22.4825 10.6175 20.195 10.5325 19.5775C10.5135 19.4131 10.5026 19.2479 10.5 19.0825V18.0925C10.5 16.4625 11.5525 15.21 12.65 14.4975C13.5252 13.9301 14.2444 13.1527 14.7422 12.2361C15.24 11.3196 15.5005 10.293 15.5 9.25C15.5 6.92 15.08 4.84 14.7375 3.5375C14.6625 3.25 14.375 3 13.9625 3C13.7072 3 13.4624 3.10141 13.2819 3.28191C13.1014 3.46241 13 3.70723 13 3.9625V10.5ZM20.5 11.75C20.5 8.76631 21.6853 5.90483 23.795 3.79505C25.9048 1.68526 28.7663 0.5 31.75 0.5C32.0815 0.5 32.3995 0.631696 32.6339 0.866116C32.8683 1.10054 33 1.41848 33 1.75V16.6825L33.0475 17.125C33.2464 18.9908 33.4372 20.8575 33.62 22.725C33.9275 25.865 34.25 29.385 34.25 30.5C34.25 31.8261 33.7232 33.0979 32.7855 34.0355C31.8479 34.9732 30.5761 35.5 29.25 35.5C27.9239 35.5 26.6521 34.9732 25.7145 34.0355C24.7768 33.0979 24.25 31.8261 24.25 30.5C24.25 29.385 24.5725 25.865 24.88 22.725C25.0375 21.1325 25.195 19.6075 25.3125 18.4775L25.3625 18H23C22.337 18 21.7011 17.7366 21.2322 17.2678C20.7634 16.7989 20.5 16.163 20.5 15.5V11.75ZM27.9925 16.8825L27.94 17.3875C27.7446 19.2478 27.5546 21.1086 27.37 22.97C27.0525 26.1875 26.75 29.545 26.75 30.5C26.75 31.163 27.0134 31.7989 27.4822 32.2678C27.9511 32.7366 28.587 33 29.25 33C29.913 33 30.5489 32.7366 31.0178 32.2678C31.4866 31.7989 31.75 31.163 31.75 30.5C31.75 29.5425 31.4475 26.1875 31.13 22.97C30.9466 21.1085 30.7566 19.2477 30.56 17.3875L30.5075 16.885L30.5 16.75V3.0875C28.4171 3.38814 26.5124 4.42938 25.1349 6.02038C23.7574 7.61138 22.9995 9.64554 23 11.75V15.5H26.75C26.9253 15.5001 27.0986 15.537 27.2587 15.6084C27.4188 15.6798 27.5621 15.7841 27.6792 15.9144C27.7964 16.0448 27.8849 16.1984 27.9388 16.3652C27.9928 16.5319 28.0111 16.7082 27.9925 16.8825Z" fill="#17171B"/>
</svg>
